<?xml version="1.0" encoding="UTF-8"?>
<svg width="321px" height="319px" viewBox="0 0 321 319" version="1.1" xmlns="http://www.w3.org/2000/svg" xmlns:xlink="http://www.w3.org/1999/xlink">
    <!-- Generator: Sketch 52.4 (67378) - http://www.bohemiancoding.com/sketch -->
    <title>Group 3</title>
    <desc>Created with Sketch.</desc>
    <g id="Page-2" stroke="none" stroke-width="1" fill="none" fill-rule="evenodd">
        <g id="Home-mobile" transform="translate(-31.000000, -175.000000)">
            <g id="Group-3" transform="translate(32.000000, 175.000000)">
                <path d="M165.5,263 C225.422895,263 274,214.422895 274,154.5 C274,94.5771046 225.422895,46 165.5,46 C105.577105,46 57,94.5771046 57,154.5 C57,214.422895 105.577105,263 165.5,263 Z" id="Oval" stroke="#FFFFFF" stroke-linecap="round" stroke-dasharray="5" fill-rule="nonzero"></path>
                <path d="M10.8914938,132.565757 C5.12755407,139.709601 -2.78888024e-13,147.052536 -2.78888024e-13,155.207857 C-2.78888024e-13,164.149819 6.16388404,172.114057 12.5733266,179.91067 C15.3559182,172.208454 18.3360507,164.564021 18.211448,157.564347 C18.0692185,149.545186 14.156693,140.991682 10.8914938,132.565757 Z" id="Stroke-1" stroke="#FFFFFF"></path>
                <path d="M94.2439933,292.420788 C99.548056,300.128087 105.179705,307.284269 113.087312,309.871242 C121.55489,312.641127 131.186169,309.307613 140.970007,305.8037 C134.353824,300.814451 127.793816,295.717958 120.910952,293.58439 C113.072529,291.154708 103.51812,292.076414 94.2439933,292.420788 Z" id="Stroke-3" stroke="#FFFFFF"></path>
                <path d="M26.9584666,226.466501 C26.7903949,235.683011 27.147267,244.571115 31.6762371,251.09693 C36.7503194,258.408804 46.0329152,261.447292 55.4376431,264.342432 C53.0936042,256.497119 50.8111915,248.546645 46.6211659,242.701729 C42.0625032,236.343347 34.2639799,231.60232 26.9584666,226.466501 Z" id="Stroke-5" stroke="#FFFFFF"></path>
                <path d="M25.0492823,199.863757 C22.824218,193.019456 17.539175,186.523868 12.4160513,179.91067 C9.14881605,189.502924 6.16302584,199.182208 9.15058244,207.875335 C11.8761243,215.803999 19.0270654,221.332246 26.6961479,226.466501 C26.872787,217.249423 27.598185,207.704801 25.0492823,199.863757 Z" id="Stroke-7" stroke="#FFFFFF"></path>
                <path d="M77.4136952,272.887986 C71.4934391,268.752655 63.4240288,266.59222 55.4376431,264.342432 C58.5481052,273.869743 61.759976,283.237127 69.1806075,288.225021 C75.9186571,292.753624 84.9404797,292.976156 94.2439933,292.647196 C88.9505739,285.321866 83.9821371,277.475779 77.4136952,272.887986 Z" id="Stroke-9" stroke="#FFFFFF"></path>
                <path d="M26.7059781,87.488596 L26.2067433,86.7990074 C18.2155024,92.536783 10.5888191,99.3746164 8.05026791,107.710077 C5.70560558,115.409896 8.20816545,123.921858 11.3295444,132.565757 C16.8414455,125.234774 22.9634582,118.109025 25.3905523,110.556975 C27.4594745,104.120815 26.9097356,95.0975255 26.7059781,87.488596 Z" id="Stroke-11" stroke="#FFFFFF"></path>
                <path d="M140.970007,305.629682 C149.039174,311.978611 157.193388,318.154739 166.163598,317.997043 C174.071864,317.858077 181.27734,312.501244 188.487987,306.535377 C180.117131,303.461209 171.564113,299.851117 163.508163,299.851117 C156.233731,299.851117 148.554748,302.795381 140.970007,305.629682 Z" id="Stroke-13" stroke="#FFFFFF"></path>
                <path d="M319.784994,154.473646 C319.784994,113.330939 303.633737,74.6513982 274.305148,45.5593467 C244.977143,16.4672953 205.983304,0.445400776 164.507491,0.445400776 C123.031678,0.445400776 84.0378388,16.4672953 54.7104192,45.5593467 C42.4514688,57.7196699 32.5042698,71.5592399 25.0671226,86.5494478 L25.8480406,87.6089864 C33.2576948,72.5212963 43.2218576,58.5964294 55.5375488,46.3798219 C84.6444396,17.5071053 123.344045,1.60590306 164.507491,1.60590306 C205.670937,1.60590306 244.371128,17.5071053 273.478018,46.3798219 C302.585494,75.2525384 318.615079,113.641374 318.615079,154.473646 C318.615079,195.305919 302.585494,233.694754 273.478018,262.567471 C249.663821,286.190075 219.426208,301.122838 186.673278,305.774712 L187.458876,306.840633 C220.223505,302.054141 250.459363,287.041884 274.305148,263.387946 C303.633737,234.295895 319.784994,195.616354 319.784994,154.473646" id="Fill-15" fill="#FFFFFF"></path>
            </g>
        </g>
    </g>
</svg>