<?xml version="1.0" encoding="UTF-8"?>
<svg width="257px" height="56px" viewBox="0 0 257 56" version="1.1" xmlns="http://www.w3.org/2000/svg" xmlns:xlink="http://www.w3.org/1999/xlink">
    <!-- Generator: Sketch 53.2 (72643) - https://sketchapp.com -->
    <title>Group 5</title>
    <desc>Created with Sketch.</desc>
    <g id="Page-1" stroke="none" stroke-width="1" fill="none" fill-rule="evenodd">
        <g id="Desktop-HD-Copy" transform="translate(-424.000000, -1159.000000)" fill="#FFFFFF">
            <g id="Group-5" transform="translate(424.000000, 1159.000000)">
                <path d="M72.8179715,0.194193246 C68.9135377,1.86687997 64.6212689,6.59242829 63.2656293,12.5240139 C61.5488182,20.0395664 68.6932701,23.2176564 69.2792615,22.1755983 C69.9689678,20.9511701 67.9990597,20.5371029 67.5935697,16.6376923 C67.0695037,11.6012689 69.3572524,5.97363231 72.2364601,3.50438935 C72.7716539,3.04562937 72.7461948,3.68414635 72.7461948,4.86521297 C72.7461948,6.97723448 72.6321711,25.9369889 72.6321711,29.8939109 C72.6321711,35.2481157 72.4160945,36.9388718 72.0280187,38.6095618 C71.6348127,40.3026351 71.0026722,41.4466262 71.4816731,41.8872921 C72.0168428,42.3802188 74.3018216,41.2077308 75.6246318,39.3181869 C77.210872,37.0519718 77.7661295,34.3303738 77.865822,31.3747615 C77.9862286,27.8118653 77.9810982,22.1582931 77.9862286,18.9335383 C77.9910458,15.9759538 78.0349066,7.3154991 77.9355754,2.10915258 C77.9112243,0.832143254 74.4508184,-0.507628181 72.8177788,0.192640217 L72.8179715,0.194193246 Z M213.96251,25.9606769 C213.833422,28.7487138 213.216022,30.9279387 212.449774,32.4650676 C210.966359,35.4408568 207.888225,36.3648773 206.581298,32.0870693 C205.869071,29.7552279 205.835799,25.8608255 206.347849,22.6068129 C206.869089,19.2918894 208.324518,16.7883698 210.73454,17.0141465 C213.111636,17.2373307 214.22429,20.2991195 213.96251,25.9605535 L213.96251,25.9606769 Z M173.991514,42.9783324 C173.959251,47.7902661 173.229803,52.0093289 171.665546,53.2347219 C169.446941,54.9722727 166.464969,53.6689109 167.082436,50.1575948 C167.628781,47.0504086 170.212604,43.8771797 173.997788,40 C173.997788,40 174.005694,40.8841768 173.991613,42.9783324 L173.991514,42.9783324 Z M173.943794,25.9248505 C173.808928,28.4658982 173.154194,31.018608 172.439885,32.4609498 C170.965444,35.4387076 167.883022,36.3696229 166.605649,32.0826982 C165.732261,29.1536889 165.941436,25.3627978 166.373562,22.9741947 C166.934318,19.875097 168.293538,17 170.734659,17 C173.108027,17 174.278357,19.6198408 173.943794,25.9250482 L173.943794,25.9248505 Z M150.952754,25.8997252 C150.808211,28.590619 150.286929,30.8400631 149.450385,32.4738889 C147.936878,35.4308038 144.942591,36.3685725 143.622029,32.0956835 C142.670037,29.0146024 142.994131,24.8134536 143.390152,22.5439986 C143.977842,19.1762432 145.449473,16.7885758 147.746877,17.0148222 C150.106741,17.2469977 151.253959,20.3012494 150.952754,25.8999228 L150.952754,25.8997252 Z M256.123155,28.6295341 C255.547627,28.6295341 255.284998,29.2338516 255.067719,30.2510865 C254.314069,33.7880353 253.521922,34.5866698 252.500406,34.5866698 C251.359164,34.5866698 250.333732,32.8353234 250.070124,29.3294394 C249.862952,26.5727006 249.896236,21.4974436 250.161166,16.4489158 C250.215303,15.4116358 249.934416,14.3853258 247.203324,13.374623 C246.028136,12.9398904 244.319858,12.2997721 243.469317,14.3913094 C241.066127,20.3002772 240.125839,24.9915125 239.904644,26.8972604 C239.893141,26.9958899 239.774467,27.0160347 239.753591,26.7855917 C239.612646,25.2592282 239.297496,22.4855335 239.258337,16.6579923 C239.25075,15.5209859 239.014308,14.5531655 237.782365,13.7608137 C236.983023,13.2466739 234.555677,12.3373441 233.681641,13.4191509 C232.924394,14.3038992 232.047421,16.6848935 231.136184,19.5072773 C230.395604,21.8012104 229.879792,23.3530042 229.879792,23.3530042 C229.879792,23.3530042 229.889581,17.1635058 229.898392,14.8157203 C229.902308,13.9299997 229.305903,13.6348592 229.126143,13.581356 C228.316693,13.3420374 226.721949,12.942234 226.044976,12.942234 C225.209756,12.942234 225.005203,13.4178295 225.005203,14.1108038 C225.005203,14.2015299 224.873386,22.2598774 224.873386,27.8946498 C224.873386,28.1394035 224.873386,28.406446 224.875834,28.690118 C224.413864,31.2799146 222.915694,34.795522 221.286369,34.795522 C219.655086,34.795522 218.885455,33.3257533 218.885455,26.6082282 C218.885455,22.6893993 219.000947,20.9853981 219.057727,18.1510721 C219.090668,16.5185249 219.154301,15.2648634 219.150703,14.9803687 C219.138711,14.1079366 217.657771,13.6682177 216.968708,13.5057134 C216.27639,13.3418379 215.674773,13.278362 215.204972,13.3056123 C214.540065,13.3438324 214.069603,13.7882136 214.069603,14.3994122 C214.069603,14.7271134 214.073274,15.3502791 214.073274,15.3502791 C213.216859,13.9793144 211.839419,13.0251066 210.922945,12.7485911 C208.454507,12.0017904 205.878702,12.6634995 203.935866,15.4330521 C202.391686,17.6335914 201.460899,20.1259304 201.0945,23.7067589 C200.826658,26.3246061 200.914079,28.9792749 201.390096,31.2243421 C200.81491,33.7576437 199.747065,34.795522 198.577776,34.795522 C196.880266,34.795522 195.64962,31.9729637 195.792523,27.0914777 C195.886797,23.8807317 196.517465,21.6275119 197.206846,18.3677528 C197.500802,16.9781642 197.261985,16.2506346 196.662962,15.5533472 C196.113548,14.913901 194.942961,14.5871971 193.260111,14.98902 C192.061453,15.2755092 190.347643,15.5835892 188.77965,15.8202401 C188.77965,15.8202401 188.874266,15.4356949 188.951921,14.7577045 C189.35973,11.2021337 185.56701,11.4906175 184.356922,12.6262766 C183.634599,13.3042909 183.142919,14.1039476 182.956305,15.541729 C182.660391,17.8233709 184.487099,18.8995442 184.487099,18.8995442 C183.887757,21.6943286 182.418638,25.3452673 180.901868,27.9848524 C180.089506,29.3990734 179.467991,30.4470241 178.665712,31.5610186 C178.662775,31.1462064 178.660573,30.731444 178.659104,30.3185764 C178.640749,24.442815 178.717499,19.8183989 178.75142,18.1516206 C178.784386,16.5190983 178.848655,15.2986707 178.845057,15.014176 C178.836002,14.3760513 178.47019,14.1350872 177.70937,13.829974 C177.036631,13.5601142 176.241205,13.3733265 175.416117,13.3081802 C174.374703,13.2254322 173.747315,13.7881139 173.763614,14.4534889 C173.766796,14.5791193 173.766796,15.3505285 173.766796,15.3505285 C172.910356,13.9795388 171.532916,13.025356 170.616466,12.7488155 C168.148004,12.0023389 165.572224,12.6640729 163.629364,15.4332765 C162.085526,17.6338158 161.07446,20.7217462 160.787993,23.679733 C160.521129,26.4365989 160.570395,28.779423 160.934175,30.75296 C160.541687,32.7291895 159.413171,34.7957713 158.137176,34.7957713 C156.505892,34.7957713 155.577695,33.3259777 155.577695,26.6084775 C155.577695,22.6896486 155.693187,20.9856474 155.749967,18.1516206 C155.782909,16.5190983 155.846541,15.2651127 155.842943,14.9809422 C155.830951,14.1085101 154.349986,13.6687911 153.660948,13.5059378 C152.939923,13.3361036 152.317429,13.273625 151.839454,13.3095016 C151.20881,13.3573703 150.765416,13.9326923 150.765416,14.3617654 L150.765416,15.3505285 C149.909001,13.9795388 148.531561,13.025356 147.615087,12.7488155 C145.146649,12.0023389 142.585211,12.6747187 140.628009,15.4332765 C139.351695,17.2319929 138.318431,19.2261484 137.786638,23.6405156 C137.632966,24.9161941 137.5651,26.1107676 137.573911,27.2273301 C137.064951,30.3981083 134.817048,34.0526096 132.978275,34.0526096 C131.90228,34.0526096 130.877509,31.926566 130.877509,27.3954939 C130.877509,21.359871 131.244226,12.7664421 131.306218,11.9382148 C131.306218,11.9382148 133.629476,11.8980001 134.079405,11.8926647 C135.238244,11.8797003 136.287832,11.9076237 137.831327,11.8271943 C138.605534,11.7869796 139.351352,8.95661775 138.552353,8.60632853 C138.190212,8.44778837 135.630732,8.3088694 134.616093,8.28692958 C133.762933,8.2672336 131.38779,8.08817473 131.38779,8.08817473 C131.38779,8.08817473 131.600835,2.38424454 131.650419,1.78169721 C131.692514,1.27949965 131.054675,1.02093384 130.688937,0.864039176 C129.79958,0.480840219 129.003836,0.297368448 128.060636,0.0992867486 C126.757548,-0.174562135 126.166381,0.0933031605 126.050888,1.21368018 C125.877001,2.9140414 125.786937,7.8944062 125.786937,7.8944062 C124.830693,7.8944062 121.564211,7.7039785 120.607648,7.7039785 C119.718927,7.7039785 118.759722,11.5975492 119.98841,11.6453929 C121.402071,11.7012398 123.865638,11.7494326 125.498855,11.7996199 C125.498855,11.7996199 125.426119,20.5346344 125.426119,23.2313877 C125.426119,23.5183008 125.428566,23.794593 125.429056,24.0626826 C124.530203,28.8353446 121.364234,31.4134234 121.364234,31.4134234 C122.044144,28.2560336 120.655274,25.8849869 118.153552,23.8778895 C117.231865,23.1382681 115.412329,21.7380587 113.376492,20.2036672 C113.376492,20.2036672 114.555595,19.0198143 115.601243,16.6381468 C116.342165,14.951099 116.374153,13.0204195 114.555595,12.5946882 C111.550763,11.890745 109.073197,14.138802 108.334207,16.5387693 C107.76164,18.3979699 108.067026,19.7775859 109.188689,21.2107051 C109.270579,21.3154179 109.359321,21.4224244 109.451,21.530104 C108.772706,22.8619261 107.840911,24.655008 107.051701,26.0455216 C104.861214,29.9061825 103.20646,32.9598818 101.955917,32.9598818 C100.956256,32.9598818 100.969643,29.8595853 100.969643,26.956847 C100.969643,24.4544331 101.151044,20.6922272 101.295905,16.797011 C101.343849,15.5087944 100.711566,14.7749322 99.651577,14.1102304 C99.0075463,13.706413 97.6330186,12.9124157 96.8369561,12.9124157 C95.6454197,12.9124157 92.2077178,13.0775877 88.9595172,22.6491597 C88.5501667,23.8555757 87.7459788,26.0538238 87.7459788,26.0538238 L87.815191,14.5436167 C87.815191,14.2737568 87.674099,14.0128475 87.3510435,13.834362 C86.8036847,13.5315925 85.3417607,12.9124157 84.0418295,12.9124157 C83.4224685,12.9124157 83.1133876,13.2058858 83.1133876,13.7908314 L83,31.7986419 C83,33.166889 83.0350222,34.7630859 83.1678175,35.4612211 C83.3001234,36.1602288 83.5144659,36.7288692 83.7799343,37.0671912 C84.0450111,37.404865 84.3516446,37.6624585 84.857202,37.7687669 C85.3277372,37.8674463 87.904276,38.2044968 88.0381972,37.201448 C88.1986481,35.9993701 88.204791,34.6991613 89.5577327,29.8500116 C91.6639811,22.3005159 94.4101485,18.6169941 95.7011223,17.3088322 C95.9268451,17.0801843 96.1845798,17.0665467 96.1721715,17.4407703 C96.1170563,19.0959305 95.9232475,23.2317866 95.7927771,26.7454767 C95.4430695,36.1485359 97.1222483,37.8914056 99.5218898,37.8914056 C101.357726,37.8914056 103.945596,36.0331773 106.719737,31.329354 C108.449235,28.3979942 110.128462,25.5237278 111.334952,23.4521323 C112.175729,24.2450076 113.119246,25.0983695 114.062128,26.009994 C116.253252,28.1285083 116.972662,30.141537 116.495348,32.051249 C116.13027,33.5111697 114.755425,35.015718 112.308499,33.553354 C111.595306,33.1267242 111.290899,32.7971033 110.573789,32.3161225 C110.188497,32.0577312 109.600242,31.9804931 109.247573,32.2511756 C108.331442,32.9548456 107.80748,33.8498657 107.508311,34.9579515 C107.217292,36.0361691 108.277281,36.6061308 109.37611,37.1046634 C110.322247,37.5337366 112.355808,37.9225451 113.65268,37.9668237 C118.705732,38.1389765 122.753593,35.4814157 125.571445,28.6262432 C126.075852,34.5465299 128.222604,37.8966911 131.952378,37.8966911 C134.44595,37.8966911 136.946033,34.6132469 138.039331,31.3831565 C138.353184,32.699845 138.817772,33.8448296 139.41775,34.8130738 C142.291744,39.4518007 147.867119,38.4533891 150.667717,34.5143681 C151.533603,33.2972315 151.665395,32.8598561 151.665395,32.8598561 C152.073865,36.5792545 155.014086,37.8787902 156.697572,37.8787902 C158.583017,37.8787902 160.529769,36.9707807 161.894164,33.8416383 C162.054052,34.1812319 162.228575,34.5055423 162.419129,34.8129741 C165.293099,39.451701 170.868499,38.4532894 173.669072,34.5142684 C173.801206,34.3295002 173.91572,34.1618849 174.015891,34.0114475 L174.098099,36.4545217 C174.098099,36.4545217 172.500418,37.9475516 171.5197,38.8634644 C167.203336,42.8976244 163.921215,45.9583046 163.67978,49.5225036 C163.369842,54.0671635 166.988015,55.7562058 169.725298,55.9775487 C172.632235,56.2125541 175.121573,54.5767159 176.651706,52.2873701 C177.997501,50.272322 178.878415,45.9353675 178.813804,41.6519411 C178.788033,39.9366708 178.745619,37.7557028 178.712335,35.4179149 C180.229423,33.6231875 181.93868,31.3548341 183.512548,28.6996418 C185.227679,25.8060534 187.065791,21.920209 188.007033,18.8960787 C188.007033,18.8960787 189.604077,18.9100404 191.308415,18.7963771 C191.853596,18.7601515 192.010204,18.8734657 191.909396,19.2806239 C191.787688,19.7724998 189.756109,27.7550826 191.610203,33.0727971 C192.879346,36.7131124 195.740296,37.884325 197.436484,37.884325 C199.422076,37.884325 201.321545,36.3567897 202.339458,34.0884862 C202.462121,34.3413676 202.59034,34.5860715 202.730306,34.8119768 C205.604301,39.4507037 211.160121,38.4463086 213.980273,34.5132711 C214.61679,33.625905 214.977952,32.8587592 214.977952,32.8587592 C215.583167,36.7081261 218.521748,37.8972894 220.204892,37.8972894 C221.958202,37.8972894 223.622109,37.1650727 224.972163,33.9109981 C225.0286,35.3437682 225.117342,36.5153299 225.257626,36.8846918 C225.343114,37.1105722 225.841305,37.3941444 226.203763,37.5310938 C227.807636,38.136982 229.443496,37.8504678 230.048686,37.7258347 C230.467924,37.6393968 230.794846,37.2967615 230.839536,36.4119883 C230.956986,34.0888353 230.884886,30.1855912 231.576225,27.2847726 C232.736728,22.4163981 233.819233,20.5279527 234.332769,19.593042 C234.620191,19.0692288 234.944494,18.9828158 234.956242,19.5371952 C234.980471,20.6588936 235.035195,23.9529087 235.48478,28.3785725 C235.814933,31.6334948 236.256051,33.557368 236.595014,34.166248 C237.562369,35.9074721 238.757112,35.989921 239.730023,35.989921 C240.348919,35.989921 241.643172,35.8156988 241.527362,34.707638 C241.470925,34.1675444 241.569775,30.8296746 242.713954,26.0334298 C243.461069,22.9013181 244.706717,20.0712554 245.155985,19.0366431 C245.321722,18.6550897 245.398717,18.9558647 245.396098,19.014454 C245.301482,21.1714627 245.089097,28.2267639 245.951704,32.0854303 C247.121019,37.3127427 250.50363,37.8976883 251.682391,37.8976883 C254.198797,37.8976883 256.256832,35.9476868 256.950129,30.8168098 C257.117163,29.5820466 256.869854,28.6286117 256.128931,28.6286117 L256.123155,28.6295341 Z" id="Shape" fill-rule="nonzero"></path>
                <path d="M21.5000427,3 C27.3390494,3 28.0712189,3.02474987 30.3644225,3.12938209 C32.6528468,3.23375827 34.2157585,3.59724 35.583317,4.12876483 C36.997132,4.67812663 38.1961353,5.41328316 39.3914687,6.60853126 C40.5867168,7.80386471 41.3218734,9.00286797 41.8713205,10.416683 C42.40276,11.7842415 42.7662417,13.3471532 42.8706179,15.6355775 C42.9752501,17.9287811 43,18.6609506 43,24.5000427 C43,30.3390494 42.9752501,31.0712189 42.8706179,33.3644225 C42.7662417,35.6528468 42.40276,37.2157585 41.8713205,38.583317 C41.3218734,39.997132 40.5867168,41.1961353 39.3914687,42.3914687 C38.1961353,43.5867168 36.997132,44.3218734 35.583317,44.8713205 C34.2157585,45.40276 32.6528468,45.7662417 30.3644225,45.8706179 C28.0712189,45.9752501 27.3390494,46 21.5000427,46 C15.6609506,46 14.9287811,45.9752501 12.6355775,45.8706179 C10.3471532,45.7662417 8.78424146,45.40276 7.41668304,44.8713205 C6.00286797,44.3218734 4.80386471,43.5867168 3.60853126,42.3914687 C2.41328316,41.1961353 1.67812663,39.997132 1.12876483,38.583317 C0.597240002,37.2157585 0.233758269,35.6528468 0.129382087,33.3644225 C0.0247498715,31.0712189 0,30.3390494 0,24.5000427 C0,18.6609506 0.0247498715,17.9287811 0.129382087,15.6355775 C0.233758269,13.3471532 0.597240002,11.7842415 1.12876483,10.416683 C1.67812663,9.00286797 2.41328316,7.80386471 3.60853126,6.60853126 C4.80386471,5.41328316 6.00286797,4.67812663 7.41668304,4.12876483 C8.78424146,3.59724 10.3471532,3.23375827 12.6355775,3.12938209 C14.9287811,3.02474987 15.6609506,3 21.5000427,3 Z M21.5000427,6.87386695 C15.7592673,6.87386695 15.0792433,6.89580046 12.812155,6.99923785 C10.7159263,7.09482357 9.57751751,7.44507692 8.81991541,7.73951505 C7.81635079,8.12953888 7.10014072,8.59543388 6.34782997,9.34782997 C5.59543388,10.1001407 5.12953888,10.8163508 4.73951505,11.8199154 C4.44507692,12.5775175 4.09482357,13.7159263 3.99923785,15.812155 C3.89580046,18.0792433 3.87386695,18.7592673 3.87386695,24.5000427 C3.87386695,30.2407327 3.89580046,30.9207567 3.99923785,33.187845 C4.09482357,35.2840737 4.44507692,36.4224825 4.73951505,37.1800846 C5.12953888,38.1836492 5.59551922,38.8998593 6.34782997,39.65217 C7.10014072,40.4045661 7.81635079,40.8704611 8.81991541,41.260485 C9.57751751,41.5549231 10.7159263,41.9051764 12.812155,42.0007621 C15.0789872,42.1041995 15.7588406,42.126133 21.5000427,42.126133 C27.2411594,42.126133 27.9210981,42.1041995 30.187845,42.0007621 C32.2840737,41.9051764 33.4224825,41.5549231 34.1800846,41.260485 C35.1836492,40.8704611 35.8998593,40.4045661 36.65217,39.65217 C37.4045661,38.8998593 37.8704611,38.1836492 38.260485,37.1800846 C38.5549231,36.4224825 38.9051764,35.2840737 39.0007621,33.187845 C39.1041995,30.9207567 39.126133,30.2407327 39.126133,24.5000427 C39.126133,18.7592673 39.1041995,18.0792433 39.0007621,15.812155 C38.9051764,13.7159263 38.5549231,12.5775175 38.260485,11.8199154 C37.8704611,10.8163508 37.4045661,10.1001407 36.65217,9.34782997 C35.8998593,8.59543388 35.1836492,8.12953888 34.1800846,7.73951505 C33.4224825,7.44507692 32.2840737,7.09482357 30.187845,6.99923785 C27.9207567,6.89580046 27.2407327,6.87386695 21.5000427,6.87386695 Z M22.0000425,31.1403554 C25.9435278,31.1403554 29.1403554,27.9435278 29.1403554,24.0000425 C29.1403554,20.0564722 25.9435278,16.8596446 22.0000425,16.8596446 C18.0564722,16.8596446 14.8596446,20.0564722 14.8596446,24.0000425 C14.8596446,27.9435278 18.0564722,31.1403554 22.0000425,31.1403554 Z M22.0000425,13 C28.0751713,13 33,17.9248287 33,24.0000425 C33,30.0751713 28.0751713,35 22.0000425,35 C15.9248287,35 11,30.0751713 11,24.0000425 C11,17.9248287 15.9248287,13 22.0000425,13 Z M35,12.5000413 C35,13.8807661 33.8806834,15 32.4999587,15 C31.1193166,15 30,13.8807661 30,12.5000413 C30,11.1193166 31.1193166,10 32.4999587,10 C33.8806834,10 35,11.1193166 35,12.5000413 Z" id="Combined-Shape"></path>
            </g>
        </g>
    </g>
</svg>