<?xml version="1.0" encoding="UTF-8"?>
<svg width="91px" height="91px" viewBox="0 0 91 91" version="1.1" xmlns="http://www.w3.org/2000/svg" xmlns:xlink="http://www.w3.org/1999/xlink">
    <!-- Generator: Sketch 53.2 (72643) - https://sketchapp.com -->
    <title>Combined Shape</title>
    <desc>Created with Sketch.</desc>
    <g id="Page-1" stroke="none" stroke-width="1" fill="none" fill-rule="evenodd">
        <g id="Desktop-HD-Copy" transform="translate(-600.000000, -1270.000000)" fill="#FFFFFE">
            <g id="Group" transform="translate(600.000000, 1270.000000)">
                <path d="M11.003553,0 C17.0720284,0 22,4.90734837 22,10.9539658 C22,17.0041213 17.0720284,21.9114697 11.003553,21.9114697 C4.91020672,21.9114697 0,17.0041213 0,10.9539658 C0,4.90734837 4.91020672,0 11.003553,0 Z M1.50645995,91 L1.50645995,30.2153966 L20.4935401,30.2153966 L20.4935401,91 L1.50645995,91 Z M32,30.5001704 L50.1380346,30.5001704 L50.1380346,38.7722367 L50.3967444,38.7722367 C52.9200505,34.0146541 59.0971889,29 68.304421,29 C87.4595747,29 91,41.5260707 91,57.8201749 L91,91 L72.0822922,91 L72.0822922,61.577644 C72.0822922,54.5627627 71.9582532,45.5370896 62.2477775,45.5370896 C52.4026309,45.5370896 50.899988,53.1823242 50.899988,61.0775872 L50.899988,91 L32,91 L32,30.5001704 Z" id="Combined-Shape"></path>
            </g>
        </g>
    </g>
</svg>