<?xml version="1.0" encoding="UTF-8"?>
<svg width="531px" height="39px" viewBox="0 0 531 39" version="1.1" xmlns="http://www.w3.org/2000/svg" xmlns:xlink="http://www.w3.org/1999/xlink">
    <!-- Generator: Sketch 53.2 (72643) - https://sketchapp.com -->
    <title>Combined Shape</title>
    <desc>Created with Sketch.</desc>
    <g id="Page-1" stroke="none" stroke-width="1" fill="none" fill-rule="evenodd">
        <g id="Desktop-HD-Copy" transform="translate(-455.000000, -73.000000)" fill="#000000">
            <g id="Group-6" transform="translate(455.000000, 73.000000)">
                <path d="M213.1658,37.5678 L213.1658,0.7778 L236.2048,0.7778 L236.2048,7.5238 L220.3268,7.5238 L220.3268,15.9298 L234.6998,15.9298 L234.6998,22.3118 L220.3268,22.3118 L220.3268,30.8218 L236.2048,30.8218 L236.2048,37.5678 L213.1658,37.5678 Z M176.7418,37.5678 L176.7418,0.7778 L184.0058,0.7778 L184.0058,37.5678 L176.7418,37.5678 Z M120.6008,37.5678 L120.6008,30.6148 L139.7478,7.5758 L121.2748,7.5758 L121.2748,0.7778 L149.2948,0.7778 L149.2948,7.4718 L129.8368,30.7178 L149.5548,30.7178 L149.5548,37.5678 L120.6008,37.5678 Z M77.3798,31.3928 C83.0868,31.3928 88.8988,27.4498 88.8988,19.1468 C88.8988,10.8448 83.0868,6.9008 77.3798,6.9008 C71.7238,6.9008 65.9128,10.8448 65.9128,19.1468 C65.9128,27.4498 71.7238,31.3928 77.3798,31.3928 Z M77.3798,-0.0002 C87.3948,-0.0002 96.3188,7.3168 96.3188,19.1988 C96.3188,31.0298 87.3948,38.3458 77.3798,38.3458 C67.4168,38.3458 58.4918,31.0298 58.4918,19.1988 C58.4918,7.3168 67.4168,-0.0002 77.3798,-0.0002 Z M12.8688,30.9258 C18.8878,30.9258 23.9208,27.1898 23.9208,19.1988 C23.9208,11.2078 18.9388,7.4208 12.9198,7.4208 L7.1608,7.4208 L7.1608,30.9258 L12.8688,30.9258 Z M-0.0002,37.5678 L-0.0002,0.7778 L13.1798,0.7778 C23.6618,0.7778 31.3408,7.5758 31.3408,19.1988 C31.3408,30.8218 23.6098,37.5678 13.1278,37.5678 L-0.0002,37.5678 Z M522.6926,37.5678 L505.9846,11.4668 L505.9846,37.5678 L498.8236,37.5678 L498.8236,0.7778 L507.7496,0.7778 L523.0566,25.1138 L523.0566,0.7778 L530.2166,0.7778 L530.2166,37.5678 L522.6926,37.5678 Z M449.9476,22.6238 L460.1186,22.6238 L455.0326,8.7168 L449.9476,22.6238 Z M462.5046,29.1618 L447.5616,29.1618 L444.4996,37.5678 L436.9236,37.5678 L451.0376,0.7778 L459.3396,0.7778 L473.3506,37.5678 L465.5666,37.5678 L462.5046,29.1618 Z M410.7216,0.7778 L418.2966,0.7778 L404.6506,37.5678 L397.2826,37.5678 L383.6876,0.7778 L391.5226,0.7778 L401.1226,28.1238 L410.7216,0.7778 Z M340.9846,37.5678 L340.9846,0.7778 L348.1456,0.7778 L348.1456,30.7178 L364.5426,30.7178 L364.5426,37.5678 L340.9846,37.5678 Z M292.1086,22.6238 L302.2786,22.6238 L297.1936,8.7168 L292.1086,22.6238 Z M304.6656,29.1618 L289.7216,29.1618 L286.6606,37.5678 L279.0846,37.5678 L293.1986,0.7778 L301.5006,0.7778 L315.5106,37.5678 L307.7276,37.5678 L304.6656,29.1618 Z" id="Combined-Shape"></path>
            </g>
        </g>
    </g>
</svg>