<?xml version="1.0" encoding="UTF-8"?>
<svg width="92px" height="90px" viewBox="0 0 92 90" version="1.1" xmlns="http://www.w3.org/2000/svg" xmlns:xlink="http://www.w3.org/1999/xlink">
    <!-- Generator: Sketch 53.2 (72643) - https://sketchapp.com -->
    <title>Fill 4</title>
    <desc>Created with Sketch.</desc>
    <g id="Page-1" stroke="none" stroke-width="1" fill="none" fill-rule="evenodd">
        <g id="Desktop-HD-Copy" transform="translate(-418.000000, -1278.000000)" fill="#161514">
            <path d="M463.995764,1278 C438.597563,1278 418,1298.65689 418,1324.14024 C418,1344.52522 431.179164,1361.81719 449.458301,1367.91824 C451.759784,1368.3431 452.598484,1366.91839 452.598484,1365.69478 C452.598484,1364.60146 452.558949,1361.69823 452.536358,1357.84896 C439.741244,1360.63607 437.041591,1351.66294 437.041591,1351.66294 C434.949078,1346.33231 431.933147,1344.91326 431.933147,1344.91326 C427.756592,1342.05251 432.249424,1342.10916 432.249424,1342.10916 C436.866509,1342.43489 439.295067,1346.8648 439.295067,1346.8648 C443.398201,1353.91472 450.062617,1351.8782 452.683201,1350.69708 C453.101139,1347.71737 454.290003,1345.68368 455.603119,1344.53088 C445.389054,1343.36676 434.649744,1339.40702 434.649744,1321.72701 C434.649744,1316.69096 436.442923,1312.56978 439.385432,1309.34647 C438.911016,1308.17951 437.332453,1303.48618 439.837257,1297.13588 C439.837257,1297.13588 443.697535,1295.89528 452.485527,1301.86603 C456.15378,1300.84069 460.090304,1300.33086 464.001412,1300.31103 C467.909696,1300.33086 471.843396,1300.84069 475.517296,1301.86603 C484.299641,1295.89528 488.154271,1297.13588 488.154271,1297.13588 C490.664723,1303.48618 489.08616,1308.17951 488.614568,1309.34647 C491.562724,1312.56978 493.341785,1316.69096 493.341785,1321.72701 C493.341785,1339.45234 482.585531,1343.35259 472.340403,1344.49406 C473.989564,1345.91877 475.460818,1348.73421 475.460818,1353.0395 C475.460818,1359.20569 475.40434,1364.18227 475.40434,1365.69478 C475.40434,1366.92972 476.234568,1368.36576 478.567114,1367.9154 C496.832131,1361.80019 510,1344.51955 510,1324.14024 C510,1298.65689 489.402437,1278 463.995764,1278" id="Fill-4"></path>
        </g>
    </g>
</svg>