<?xml version="1.0" encoding="UTF-8"?>
<svg width="156px" height="126px" viewBox="0 0 156 126" version="1.1" xmlns="http://www.w3.org/2000/svg" xmlns:xlink="http://www.w3.org/1999/xlink">
    <!-- Generator: Sketch 53.2 (72643) - https://sketchapp.com -->
    <title>Path</title>
    <desc>Created with Sketch.</desc>
    <g id="Page-1" stroke="none" stroke-width="1" fill="none" fill-rule="evenodd">
        <g id="Desktop-HD-Copy" transform="translate(-474.000000, -948.000000)" fill="#FFFFFF" fill-rule="nonzero">
            <g id="Group-2" transform="translate(376.000000, 895.000000)">
                <path d="M254,67.9153549 C248.259699,70.4451056 242.092226,72.1551251 235.618239,72.9239828 C242.225679,68.9873345 247.300544,62.7538033 249.690508,55.3256507 C243.505669,58.9712899 236.656917,61.6182316 229.366368,63.0445096 C223.528567,56.8624576 215.21031,53 206.004805,53 C188.329613,53 173.999883,67.2412795 173.999883,84.8078156 C173.999883,87.3009253 174.282937,89.728626 174.828631,92.0570021 C148.229464,90.7300488 124.646393,78.0667596 108.861174,58.8216972 C106.106195,63.5196328 104.527612,68.9837006 104.527612,74.8132712 C104.527612,85.8492105 110.177726,95.5854503 118.765631,101.289654 C113.519228,101.124314 108.584214,99.6934942 104.269542,97.3109135 C104.266496,97.4435483 104.266496,97.5767887 104.266496,97.7109375 C104.266496,113.122613 115.298904,125.978495 129.939719,128.901305 C127.254513,129.627768 124.426714,130.017799 121.507813,130.017799 C119.445388,130.017799 117.440548,129.817938 115.485981,129.446077 C119.559036,142.082718 131.37845,151.280545 145.383689,151.536427 C134.430194,160.068658 120.63001,165.153294 105.634844,165.153294 C103.051404,165.153294 100.503917,165.003095 98,164.707847 C112.163675,173.733976 128.986963,179 147.06099,179 C205.929852,179 238.122156,130.530169 238.122156,88.4958495 C238.122156,87.1168113 238.090469,85.7450407 238.029227,84.3805379 C244.28323,79.8960898 249.709399,74.2939364 254,67.9153549 Z" id="Path"></path>
            </g>
        </g>
    </g>
</svg>