<?xml version="1.0" encoding="utf-8"?>
<!-- Generator: Adobe Illustrator 19.0.0, SVG Export Plug-In . SVG Version: 6.00 Build 0)  -->
<svg version="1.1" id="Layer_1" xmlns="http://www.w3.org/2000/svg" xmlns:xlink="http://www.w3.org/1999/xlink" x="0px" y="0px"
	 viewBox="306 -12.5 1111.1 524.5" style="enable-background:new 306 -12.5 1111.1 524.5;" xml:space="preserve">
<style type="text/css">
	.st0{fill:#9B9B9B;}
	.st1{fill:#FFFFFF;}
</style>
<g>
	<path class="st0" d="M1257.2,172.8h-1.4c-2.5,0-4.4-0.7-5.7-2c-1.3-1.4-2-3.3-2-5.8v-9.8c0-1.5-0.5-2.6-1.6-3.6
		c-1.1-0.9-2.4-1.4-4-1.6v-2.6c1.6-0.2,2.9-0.7,4-1.6c1.1-0.9,1.6-2,1.6-3.5v-9.8c0-2.5,0.7-4.4,2-5.8c1.3-1.4,3.3-2,5.7-2h1.4v2.3
		h-1.4c-1.9,0-3.2,0.5-4,1.4c-0.8,0.9-1.2,2.3-1.2,4.2v9.8c0,1.5-0.5,2.9-1.4,4c-1,1.1-2.2,1.9-3.7,2.3c1.5,0.4,2.7,1.2,3.7,2.4
		c1,1.2,1.4,2.5,1.4,4.1v9.8c0,1.9,0.4,3.2,1.2,4.2c0.8,0.9,2.2,1.4,4,1.4h1.4V172.8z"/>
</g>
<g>
	<path class="st0" d="M1291.6,82.3c-1.6,0.1-2.9,0.7-4,1.6c-1.1,0.9-1.6,2.1-1.6,3.6v9.8c0,2.5-0.7,4.4-2,5.8c-1.3,1.4-3.3,2-5.7,2
		h-1.4v-2.3h1.4c1.9,0,3.2-0.5,4-1.4c0.8-0.9,1.2-2.3,1.2-4.2v-9.8c0-1.5,0.5-2.9,1.4-4.1c1-1.2,2.2-2,3.7-2.4
		c-1.5-0.4-2.7-1.2-3.7-2.3c-1-1.1-1.4-2.5-1.4-4v-9.8c0-1.9-0.4-3.2-1.2-4.2c-0.8-0.9-2.2-1.4-4-1.4h-1.4v-2.3h1.4
		c2.5,0,4.4,0.7,5.7,2c1.3,1.4,2,3.3,2,5.8v9.8c0,1.5,0.5,2.6,1.6,3.5c1.1,0.9,2.4,1.4,4,1.6V82.3z"/>
</g>
<g>
	<g>
		<circle class="st1" cx="749.7" cy="15.8" r="4.7"/>
		<path d="M749.7,21.9c-3.4,0-6.1-2.7-6.1-6.1c0-3.4,2.7-6.1,6.1-6.1c3.4,0,6.1,2.7,6.1,6.1C755.8,19.2,753.1,21.9,749.7,21.9z
			 M749.7,12.4c-1.8,0-3.4,1.5-3.4,3.3s1.5,3.4,3.4,3.4c1.8,0,3.3-1.5,3.3-3.4S751.6,12.4,749.7,12.4z"/>
	</g>
	<g>
		<path d="M1083.3,445.5H415.6V27.3h667.7V445.5z M417.9,443.2H1081V29.5H417.9V443.2z"/>
	</g>
	<g>
		<g>
			<path d="M1182.3,474.9v12.5c-10.5,6.1-22.3,9.3-34.4,9.3L346.2,497c-10.4,0-20.6-3.3-29.1-9.4v-12.7h368.2
				c1.2,5.6,6.2,9.8,12.1,9.8h102.9c5.9,0,10.8-4.2,12.1-9.8H1182.3 M1185.1,472.2H810v0.2c0,5.3-4.3,9.6-9.6,9.6H697.5
				c-5.3,0-9.6-4.3-9.6-9.6v-0.2H314.4V489h0c9.1,7,20.3,10.8,31.8,10.8l801.6-0.3c13.1,0,26-3.6,37.2-10.5V472.2L1185.1,472.2z"/>
		</g>
	</g>
	<g>
		<path d="M1088.7-0.3c8.4,0,15.2,6.8,15.2,15.2v457.3H810v0.2c0,5.3-4.3,9.6-9.6,9.6H697.5c-5.3,0-9.6-4.3-9.6-9.6v-0.2H397.6V14.9
			c0-8.4,6.8-15.2,15.2-15.2H1088.7 M1088.7-3H412.8c-9.9,0-17.9,8-17.9,17.9v457.3v2.7h2.7h287.8c1.2,5.6,6.2,9.8,12.1,9.8h102.9
			c5.9,0,10.9-4.2,12.1-9.8h291.4h2.7v-2.7V14.9C1106.6,5,1098.6-3,1088.7-3L1088.7-3z"/>
	</g>
	<g>
		<rect x="416.8" y="28.4" width="665.4" height="415.9"/>
	</g>
</g>
<g>
	<polygon class="st0" points="1267,241.2 1264.5,250.3 1266.8,250.3 1269.4,241.2 1269.4,234.9 1267,234.9 	"/>
	<rect x="1265.9" y="207.4" class="st0" width="3.5" height="5.1"/>
</g>
<g>
	<g>
		<g>
			<g>
				<path d="M1377.6,498.8h-109.5c-2,0-3.8-1.6-3.9-3.6l-13-164c-0.1-1.1,0.3-2.2,1-3s1.8-1.3,2.9-1.3l135.4,0
					c1.1,0,2.2,0.5,2.9,1.3c0.7,0.8,1.1,1.9,1,3l-13,163.9C1381.4,497.2,1379.7,498.8,1377.6,498.8z M1255.2,329.6
					c-0.3,0-0.7,0.1-0.9,0.4c-0.2,0.3-0.3,0.6-0.3,0.9l13,164c0.1,0.6,0.6,1.1,1.2,1.1h109.5c0.6,0,1.2-0.5,1.2-1.1l13-163.9
					c0-0.3-0.1-0.7-0.3-0.9c-0.2-0.3-0.6-0.4-0.9-0.4L1255.2,329.6z"/>
			</g>
			<g>
				<path d="M1406,329.6h-166.2c-0.9,0-1.8-0.4-2.3-1.1c-0.6-0.7-0.8-1.6-0.6-2.5l8.2-34.9c0.3-1.3,1.5-2.3,2.9-2.3h149.8
					c1.4,0,2.6,0.9,2.9,2.3l8.2,34.9c0.2,0.9,0,1.8-0.6,2.5C1407.8,329.2,1406.9,329.6,1406,329.6z M1248,291.6l-8.5,35l0.2,0.3
					H1406c0.1,0,0.2-0.1,0.2-0.1l-8.2-35.1L1248,291.6z"/>
			</g>
			<g>
				<rect x="1256" y="379.9" width="133.3" height="2.3"/>
			</g>
			<g>
				<rect x="1260.2" y="443.5" width="124.5" height="2.3"/>
			</g>
			<g>
				<polygon points="1384.7,444.6 1261.6,444.6 1257.9,381 1389.3,381 				"/>
			</g>
			<g>
				<path d="M1384.4,291.3h-124.2c-1.4,0-2.7-0.7-3.5-1.9c-0.8-1.2-0.9-2.6-0.3-3.9l7.8-18.1c0.7-1.7,2.5-2.7,4.3-2.5l114.6,13.2
					c1.6,0.2,2.9,1.2,3.4,2.7l1.8,4.9c0.5,1.3,0.3,2.7-0.5,3.8S1385.8,291.3,1384.4,291.3z M1259,286.6c-0.2,0.4-0.2,0.9,0.1,1.3
					c0.3,0.4,0.7,0.6,1.2,0.6h124.2c0.5,0,0.9-0.2,1.2-0.6c0.3-0.4,0.3-0.9,0.2-1.3l-1.8-4.9c-0.2-0.5-0.6-0.9-1.2-0.9l-114.6-13.2
					c-0.6-0.1-1.2,0.3-1.5,0.8L1259,286.6z"/>
			</g>
		</g>
	</g>
	<g>
		<g>
			<g>
				<path class="st1" d="M1323.6,405.6c1.9,2.8,4.4,5.3,7.2,7.2c-2.8,1.9-5.3,4.4-7.2,7.2c-1.9-2.8-4.4-5.3-7.2-7.2
					C1319.1,411,1321.7,408.4,1323.6,405.6 M1323.6,398.9C1323.5,398.9,1323.5,398.9,1323.6,398.9c-0.2,0-0.3,0.1-0.3,0.2
					c-1.5,5.6-7.8,11.9-13.4,13.4c-0.2,0-0.3,0.2-0.2,0.4c0,0.1,0.1,0.2,0.2,0.2c5.6,1.5,11.9,7.8,13.4,13.4c0,0.1,0.2,0.2,0.3,0.2
					c0,0,0.1,0,0.1,0c0.1,0,0.2-0.1,0.2-0.2c1.5-5.6,7.8-11.9,13.4-13.4c0.2,0,0.3-0.2,0.2-0.4c0-0.1-0.1-0.2-0.2-0.2
					c-5.6-1.5-11.9-7.8-13.4-13.4C1323.8,399,1323.7,398.9,1323.6,398.9L1323.6,398.9z"/>
			</g>
		</g>
	</g>
</g>
</svg>
