<?xml version="1.0" encoding="utf-8"?>
<!-- Generator: Adobe Illustrator 19.0.0, SVG Export Plug-In . SVG Version: 6.00 Build 0)  -->
<svg version="1.1" id="Layer_1" xmlns="http://www.w3.org/2000/svg" xmlns:xlink="http://www.w3.org/1999/xlink" x="0px" y="0px"
	 viewBox="0 0 500 500" style="enable-background:new 0 0 500 500;" xml:space="preserve">
<path id="XMLID_5_" d="M251,36c7.7,11.4,18.1,21.9,29.5,29.5C269.2,73.2,258.7,83.6,251,95c-7.7-11.4-18.1-21.9-29.5-29.5
	C232.9,57.8,243.4,47.4,251,36 M251,8.1c-0.1,0-0.2,0-0.3,0c-0.5,0.1-0.8,0.5-1,0.9c-6,23.1-32,49.1-55.1,55.1
	c-0.7,0.2-1.1,0.9-0.9,1.6c0.1,0.5,0.5,0.8,0.9,1c23.1,6,49.1,32,55.1,55.1c0.2,0.6,0.7,1,1.3,1c0.1,0,0.2,0,0.3,0
	c0.5-0.1,0.8-0.5,1-0.9c6-23.1,32-49.1,55.1-55.1c0.7-0.2,1.1-0.9,0.9-1.6c-0.1-0.5-0.5-0.8-0.9-1c-23.1-6-49.1-32-55.1-55.1
	C252.2,8.5,251.6,8.1,251,8.1L251,8.1z M251.2,164.9h-102v327.4h15V355.2h87c64.7,0,101.7-34.5,101.7-94.8
	C352.9,199.7,315.8,164.9,251.2,164.9z M337.7,260.4c0,25-7.9,45.6-22.7,59.5c-15,14-37.2,21.5-64.3,21.5h-86.5V178.9h86.5
	C306,178.9,337.7,208.6,337.7,260.4z"/>
</svg>
