<?xml version="1.0" encoding="utf-8"?>
<!-- Generator: Adobe Illustrator 22.1.0, SVG Export Plug-In . SVG Version: 6.00 Build 0)  -->
<svg version="1.1" id="Layer_1" xmlns="http://www.w3.org/2000/svg" xmlns:xlink="http://www.w3.org/1999/xlink" x="0px" y="0px"
	 viewBox="0 0 1000 1000" style="enable-background:new 0 0 1000 1000;" xml:space="preserve">
<style type="text/css">
	.st0{fill:#FFFFFF;}
</style>
<path id="XMLID_22_" class="st0" d="M520.4,893.7c-139,0-251.6-112.7-251.6-251.6s112.7-251.6,251.6-251.6
	c122.4,0,224.4,87.4,246.9,203.2h98.1C843.7,436.6,717.2,313,558.7,295.7V53.6c0-24.1-19.5-43.6-43.6-43.6h-9.6
	c-24.1,0-43.6,19.5-43.6,43.6v245c-16.5,2.8-32.5,6.7-48.1,11.7v-204c0-24.1-19.5-43.6-43.6-43.6h-9.6c-24.1,0-43.6,19.5-43.6,43.6
	v252.9c-17.3,12.5-33.4,26.5-48.1,41.8V178.9c0-26.7-21.7-48.4-48.4-48.4S172,152.2,172,178.9v483c0,4,0.5,7.9,1.4,11.7
	c15.9,177.7,165.2,316.9,347,316.9c176,0,321.5-130.5,345.1-300h-98.1C744.8,806.3,642.9,893.7,520.4,893.7z"/>
</svg>
