<?xml version="1.0" encoding="utf-8"?>
<!-- Generator: Adobe Illustrator 22.1.0, SVG Export Plug-In . SVG Version: 6.00 Build 0)  -->
<svg version="1.1" id="Layer_1" xmlns="http://www.w3.org/2000/svg" xmlns:xlink="http://www.w3.org/1999/xlink" x="0px" y="0px"
	 viewBox="0 0 32 32" style="enable-background:new 0 0 32 32;" xml:space="preserve">
<style type="text/css">
	.st0{fill:#010101;}
</style>
<path id="XMLID_80_" class="st0" d="M16.3,28.8c-4.5,0-8.2-3.7-8.2-8.2s3.7-8.2,8.2-8.2c4,0,7.3,2.8,8,6.6h3.2
	c-0.7-5.1-4.8-9.1-10-9.7V1.4c0-0.8-0.6-1.4-1.4-1.4h-0.3c-0.8,0-1.4,0.6-1.4,1.4v8c-0.5,0.1-1.1,0.2-1.6,0.4V3.1
	c0-0.8-0.6-1.4-1.4-1.4h-0.3c-0.8,0-1.4,0.6-1.4,1.4v8.2c-0.6,0.4-1.1,0.9-1.6,1.4V5.5c0-0.9-0.7-1.6-1.6-1.6S5,4.6,5,5.5v15.7
	c0,0.1,0,0.3,0,0.4c0.5,5.8,5.4,10.3,11.3,10.3c5.7,0,10.5-4.2,11.2-9.8h-3.2C23.6,25.9,20.3,28.8,16.3,28.8z"/>
</svg>
