<?xml version="1.0" encoding="utf-8"?>
<!-- Generator: Adobe Illustrator 22.1.0, SVG Export Plug-In . SVG Version: 6.00 Build 0)  -->
<svg version="1.1" id="Layer_1" xmlns="http://www.w3.org/2000/svg" xmlns:xlink="http://www.w3.org/1999/xlink" x="0px" y="0px"
	 viewBox="0 0 48 48" style="enable-background:new 0 0 48 48;" xml:space="preserve">
<style type="text/css">
	.st0{fill:#FFFFFF;}
</style>
<path id="XMLID_22_" class="st0" d="M24.1,43.3c-6.8,0-12.3-5.5-12.3-12.3s5.5-12.3,12.3-12.3c6,0,11,4.3,12.1,9.9H41
	c-1.1-7.7-7.3-13.7-15-14.6V2.1C26,1,25,0,23.8,0h-0.5c-1.2,0-2.1,1-2.1,2.1v12c-0.8,0.1-1.6,0.3-2.4,0.6v-10c0-1.2-1-2.1-2.1-2.1
	h-0.5c-1.2,0-2.1,1-2.1,2.1v12.4c-0.8,0.6-1.6,1.3-2.4,2V8.3c0-1.3-1.1-2.4-2.4-2.4S7,7,7,8.3v23.6c0,0.2,0,0.4,0.1,0.6
	c0.8,8.7,8.1,15.5,17,15.5c8.6,0,15.7-6.4,16.9-14.7h-4.8C35.1,39,30.1,43.3,24.1,43.3z"/>
</svg>
